<svg xmlns="http://www.w3.org/2000/svg" shape-rendering="geometricPrecision" text-rendering="geometricPrecision" image-rendering="optimizeQuality" fill-rule="evenodd" clip-rule="evenodd" viewBox="0 0 512 512"><path fill="#0983E0" fill-rule="nonzero" d="M256 0c70.425 0 134.454 28.817 180.807 75.17C483.183 121.546 512 185.575 512 256c0 70.309-28.794 134.291-75.193 180.714C390.245 483.23 326.286 512 256 512c-70.425 0-134.454-28.817-180.83-75.193C28.817 390.454 0 326.425 0 256c0-70.355 28.817-134.361 75.17-180.737C121.639 28.817 185.645 0 256 0z"/><path fill="#88DFF3" d="M256 19.7c129.965 0 236.3 106.335 236.3 236.3 0 129.965-106.335 236.3-236.3 236.3-129.965 0-236.3-106.335-236.3-236.3C19.7 126.035 126.035 19.7 256 19.7z"/><path fill="#A3EDFD" d="M255.977 29.468h.046c124.593 0 226.509 101.916 226.509 226.509v.046c0 124.593-101.916 226.509-226.509 226.509h-.046c-124.593 0-226.509-101.916-226.509-226.509v-.046c0-124.593 101.916-226.509 226.509-226.509z"/><path fill="#E8FBFD" d="M253.865 37.167c121.92 0 221.647 99.727 221.647 221.648 0 5.692-.215 11.288-.645 16.884C456.093 146.46 344.169 46.398 209.932 46.398c-7.534 0-14.995.335-22.361.957 20.95-6.625 43.215-10.188 66.294-10.188z"/><path fill="#fff" fill-rule="nonzero" d="M178.784 379.288c-12.875 0-19.326-6.45-19.326-19.326l2.016-25.423c.705-4.939 2.394-9.348 5.039-13.128 3.553-6.425 7.761-13.279 12.573-20.485l17.487-26.432 23.811-37.593 17.865-29.884h-41.323c-8.164 0-13.884-3.275-17.134-9.776-4.233-11.465-1.512-26.23.076-38.198.428-2.167 1.209-4.485 2.267-6.879.983-2.217 2.218-4.41 3.679-6.375 3.2-4.283 7.584-7.635 13.001-9.953 4.864-2.066 10.684-3.124 17.437-3.124h115.451c4.082 0 7.963 1.108 11.516 3.225 6.198 3.704 9.323 9.399 9.323 17.008l-1.261 17.461c-.579 7.686-2.544 14.362-5.82 19.931-23.03 38.375-47.042 76.598-70.652 114.646h47.824c4.082 0 7.962 1.108 11.515 3.225 6.198 3.704 9.323 9.398 9.323 17.008l-1.26 18.872c-.605 9.273-3.427 17.084-8.366 23.408-6.148 7.836-16.353 11.792-30.564 11.792H178.784z"/><path fill="#0983E0" fill-rule="nonzero" d="M178.784 363.288c-2.217 0-3.326-1.109-3.326-3.326l.907-16.327c.202-1.814.504-4.082.907-6.779.403-2.721 1.311-4.988 2.721-6.803 3.427-6.248 7.559-13.001 12.397-20.258s10.658-16.126 17.512-26.582c6.854-10.482 14.866-23.131 24.038-37.947 9.171-14.79 19.779-32.882 31.874-54.248h-68.888c-1.613 0-2.57-.303-2.873-.908-.302-.604-.453-1.713-.453-3.301l.907-16.932c.202-2.62.554-5.19 1.058-7.71a16.914 16.914 0 012.999-6.803c1.512-2.016 3.678-3.629 6.5-4.838s6.552-1.814 11.188-1.814h115.451c1.21 0 2.319.302 3.326.907 1.008.605 1.512 1.714 1.512 3.326l-1.209 16.327c-.403 5.241-1.613 9.575-3.629 13.002-.604 1.008-3.527 5.77-8.768 14.337a14921.602 14921.602 0 01-19.956 32.504 17342.602 17342.602 0 01-27.036 43.817 6764.19 6764.19 0 01-30.06 48.05h76.75c1.209 0 2.318.303 3.326.908 1.008.604 1.511 1.713 1.511 3.326l-1.209 17.814c-.403 6.047-2.066 10.935-4.989 14.665-2.923 3.728-8.92 5.593-17.991 5.593H178.784z"/></svg>